<svg width="256" height="46" viewBox="0 0 256 46" fill="none" xmlns="http://www.w3.org/2000/svg">
<path d="M21.6069 10.0057C26.012 10.0057 29.5581 11.3051 32.2452 13.904C34.9764 16.5028 36.3419 20.3578 36.3419 25.4689V45.4802H26.034V27.0283C26.034 24.2561 25.4173 22.1987 24.1839 20.8559C22.9505 19.4699 21.1664 18.7768 18.8317 18.7768C16.2327 18.7768 14.1623 19.5782 12.6206 21.1808C11.0788 22.7401 10.3079 25.0791 10.3079 28.1977V45.4802H0V10.5254H9.84536V14.6186C11.2109 13.146 12.9069 12.0198 14.9332 11.2401C16.9596 10.4171 19.1841 10.0057 21.6069 10.0057Z" fill="white"/>
<path d="M59.354 37.8785C61.2042 37.8785 62.834 37.6186 64.2437 37.0989C65.6973 36.5358 67.0409 35.6695 68.2743 34.5L73.7586 40.3475C70.4108 44.1158 65.5211 46 59.0897 46C55.0811 46 51.535 45.242 48.4514 43.726C45.3679 42.1667 42.9891 40.0226 41.3152 37.2938C39.6413 34.565 38.8043 31.468 38.8043 28.0028C38.8043 24.581 39.6192 21.5057 41.2491 18.7768C42.9231 16.0047 45.1917 13.8606 48.055 12.3446C50.9623 10.7853 54.2221 10.0057 57.8343 10.0057C61.2262 10.0057 64.3097 10.7203 67.0849 12.1497C69.8601 13.5358 72.0627 15.5716 73.6926 18.2571C75.3665 20.8992 76.2035 24.0395 76.2035 27.678L49.9051 32.6808C50.654 34.4134 51.8213 35.7128 53.4072 36.5791C55.037 37.4454 57.0193 37.8785 59.354 37.8785ZM57.8343 17.6723C55.2353 17.6723 53.1208 18.4953 51.4909 20.1412C49.8611 21.7872 49.0021 24.0612 48.914 26.9633L66.2259 23.6497C65.7414 21.8305 64.7502 20.3795 63.2525 19.2966C61.7548 18.2137 59.9487 17.6723 57.8343 17.6723Z" fill="white"/>
<path d="M114.32 10.5254V45.4802H104.541V41.322C103.175 42.838 101.545 44.0075 99.6512 44.8305C97.757 45.6102 95.7087 46 93.5061 46C88.8368 46 85.1365 44.6789 82.4053 42.0367C79.6742 39.3945 78.3086 35.4746 78.3086 30.2768V10.5254H88.6165V28.7825C88.6165 34.4134 91.0173 37.2288 95.8188 37.2288C98.2857 37.2288 100.268 36.4492 101.766 34.8898C103.263 33.2872 104.012 30.9266 104.012 27.8079V10.5254H114.32Z" fill="white"/>
<path d="M140.653 43.791C139.64 44.5273 138.384 45.0904 136.887 45.4802C135.433 45.8267 133.913 46 132.327 46C128.055 46 124.773 44.9388 122.482 42.8164C120.191 40.694 119.046 37.5753 119.046 33.4605V2.79379H129.354V11.3051H138.142V19.1017H129.354V33.3305C129.354 34.8032 129.728 35.951 130.477 36.774C131.226 37.5537 132.305 37.9435 133.715 37.9435C135.301 37.9435 136.711 37.5104 137.944 36.6441L140.653 43.791Z" fill="white"/>
<path d="M151.695 15.1384C152.928 13.4492 154.58 12.1714 156.651 11.3051C158.765 10.4388 161.188 10.0057 163.919 10.0057V19.3616C162.774 19.275 162.003 19.2316 161.606 19.2316C158.655 19.2316 156.342 20.0546 154.668 21.7006C152.995 23.3032 152.158 25.7288 152.158 28.9774V45.4802H141.85V10.5254H151.695V15.1384Z" fill="white"/>
<path d="M182.016 46C178.271 46 174.902 45.242 171.906 43.726C168.955 42.1667 166.642 40.0226 164.968 37.2938C163.294 34.565 162.457 31.468 162.457 28.0028C162.457 24.5377 163.294 21.4407 164.968 18.7119C166.642 15.9831 168.955 13.8606 171.906 12.3446C174.902 10.7853 178.271 10.0057 182.016 10.0057C185.76 10.0057 189.108 10.7853 192.059 12.3446C195.011 13.8606 197.323 15.9831 198.997 18.7119C200.671 21.4407 201.508 24.5377 201.508 28.0028C201.508 31.468 200.671 34.565 198.997 37.2938C197.323 40.0226 195.011 42.1667 192.059 43.726C189.108 45.242 185.76 46 182.016 46ZM182.016 37.6836C184.659 37.6836 186.817 36.8173 188.491 35.0847C190.209 33.3089 191.068 30.9482 191.068 28.0028C191.068 25.0574 190.209 22.7185 188.491 20.9859C186.817 19.21 184.659 18.322 182.016 18.322C179.373 18.322 177.192 19.21 175.474 20.9859C173.756 22.7185 172.897 25.0574 172.897 28.0028C172.897 30.9482 173.756 33.3089 175.474 35.0847C177.192 36.8173 179.373 37.6836 182.016 37.6836Z" fill="white"/>
<path d="M225.38 10.0057C229.785 10.0057 233.331 11.3051 236.018 13.904C238.749 16.5028 240.115 20.3578 240.115 25.4689V45.4802H229.807V27.0283C229.807 24.2561 229.19 22.1987 227.957 20.8559C226.723 19.4699 224.939 18.7768 222.605 18.7768C220.006 18.7768 217.935 19.5782 216.393 21.1808C214.852 22.7401 214.081 25.0791 214.081 28.1977V45.4802H203.773V10.5254H213.618V14.6186C214.984 13.146 216.68 12.0198 218.706 11.2401C220.732 10.4171 222.957 10.0057 225.38 10.0057Z" fill="white"/>
<path d="M243.512 0H255.802L253.753 29.6921H245.56L243.512 0ZM249.657 46C247.851 46 246.331 45.4369 245.097 44.3107C243.908 43.1412 243.313 41.7335 243.313 40.0876C243.313 38.4416 243.908 37.0772 245.097 35.9944C246.287 34.8682 247.807 34.3051 249.657 34.3051C251.507 34.3051 253.027 34.8682 254.216 35.9944C255.405 37.0772 256 38.4416 256 40.0876C256 41.7335 255.383 43.1412 254.15 44.3107C252.96 45.4369 251.463 46 249.657 46Z" fill="white"/>
</svg>
