<svg width="345" height="62" viewBox="0 0 345 62" fill="none" xmlns="http://www.w3.org/2000/svg">
<rect width="61.6868" height="61.6868" rx="10" fill="#5353EC"/>
<path fill-rule="evenodd" clip-rule="evenodd" d="M22.9425 41.7706C22.9394 41.7879 22.9362 41.805 22.9332 41.8223C22.7196 43.0111 22.6478 43.9487 22.6574 44.6439C23.2252 44.3053 23.9485 43.7699 24.8044 42.9777C26.24 41.649 27.8204 39.8109 29.4021 37.562C19.003 37.2889 10.7952 34.0726 10.7952 30.1453C10.7952 27.6336 14.1526 25.4127 19.2933 24.0667C18.6096 25.5695 18.1737 27.2251 18.0425 28.9727L18.0224 28.9801L17.996 28.9899C16.9266 29.3866 16.1315 29.7888 15.5735 30.1453C16.1315 30.5019 16.9266 30.9042 17.996 31.3009C21.092 32.4494 25.6325 33.2389 30.8386 33.2389C31.2791 33.2389 31.715 33.2333 32.1455 33.2222C32.3638 32.8389 32.5803 32.4484 32.7949 32.051C33.0131 31.6468 33.2245 31.244 33.429 30.8435C33.2244 30.4429 33.013 30.0402 32.7948 29.6358C30.1917 24.8136 27.2822 21.0026 24.8043 18.7091C23.9484 17.9169 23.2251 17.3815 22.6573 17.0429C22.6479 17.7255 22.717 18.6418 22.9216 19.8002C21.5679 20.7927 20.4413 22.0223 19.5624 23.4059C18.1169 18.03 18.2498 13.8634 20.2683 12.6169C23.4467 10.6542 30.15 16.6424 35.5695 26.1309C36.5948 23.5498 37.2899 21.1746 37.6469 19.1862C37.8604 17.9973 37.9323 17.0597 37.9226 16.3645C37.3651 16.697 36.6577 17.2192 35.8221 17.9879C34.3417 17.2302 32.7827 16.8014 31.223 16.6792C34.8531 12.6522 38.2931 10.692 40.3117 11.9385C43.2693 13.7649 42.1786 21.8604 38.0061 30.8435C38.2768 31.4263 38.5346 32.0054 38.7791 32.5793C40.6518 32.2487 42.3084 31.8101 43.6811 31.3009C44.7504 30.9042 45.5456 30.5019 46.1036 30.1453C45.5556 29.7953 44.7792 29.4012 43.7389 29.0115C43.6122 27.2614 43.1799 25.6029 42.499 24.0971C47.5747 25.4461 50.8819 27.6525 50.8819 30.1453C50.8819 32.9768 46.6157 35.4385 40.338 36.6942C42.4641 43.1432 42.6056 48.3317 40.3116 49.7483C38.2778 51.0042 34.8009 49.0048 31.1406 44.9161C32.6993 44.798 34.2578 44.374 35.7385 43.6216C35.7508 43.6332 35.7632 43.6447 35.7756 43.6562C36.6314 44.4483 37.3547 44.9837 37.9225 45.3223C37.9322 44.6271 37.8603 43.6895 37.6468 42.5007C37.3722 40.9714 36.8977 39.2135 36.2268 37.309C35.6401 37.3696 35.0426 37.4205 34.4355 37.4613C29.2453 45.83 23.2284 50.8977 20.2684 49.0699C18.2346 47.814 18.1151 43.5937 19.5955 38.1589C20.4705 39.5437 21.5931 40.7752 22.9425 41.7706ZM38.9634 15.9046C38.9634 15.9046 38.9539 15.9069 38.937 15.9079C38.9551 15.9045 38.9634 15.9046 38.9634 15.9046ZM37.7851 15.1966C37.7774 15.1803 37.7745 15.1705 37.7745 15.1705C37.7745 15.1705 37.7787 15.178 37.7851 15.1966ZM21.6167 45.1038C21.6167 45.1038 21.6261 45.1016 21.6431 45.1005C21.6249 45.1039 21.6167 45.1038 21.6167 45.1038ZM22.7949 45.8118C22.8027 45.8281 22.8055 45.8379 22.8055 45.8379C22.8055 45.8379 22.8013 45.8303 22.7949 45.8118ZM46.9964 30.8794C46.9964 30.8794 46.9898 30.872 46.9805 30.8566C46.9923 30.8718 46.9964 30.8794 46.9964 30.8794ZM46.9805 29.434C46.9898 29.4188 46.9964 29.4113 46.9964 29.4113C46.9964 29.4113 46.9923 29.419 46.9805 29.434ZM14.6807 29.4113C14.6807 29.4113 14.6873 29.4188 14.6966 29.434C14.6847 29.419 14.6807 29.4113 14.6807 29.4113ZM14.6966 30.8566C14.6873 30.872 14.6807 30.8794 14.6807 30.8794C14.6807 30.8794 14.6847 30.8718 14.6966 30.8566ZM22.8054 15.8489C22.8054 15.8489 22.8026 15.8587 22.7948 15.875C22.8012 15.8565 22.8054 15.8489 22.8054 15.8489ZM21.643 16.5863C21.626 16.5853 21.6166 16.583 21.6166 16.583C21.6166 16.583 21.6248 16.5829 21.643 16.5863ZM37.7745 46.5163C37.7745 46.5163 37.7773 46.5065 37.785 46.4902C37.7786 46.5087 37.7745 46.5163 37.7745 46.5163ZM38.9632 45.7822C38.9632 45.7822 38.9538 45.78 38.9369 45.7789C38.9482 45.7811 38.9558 45.782 38.9598 45.7824C38.9622 45.7825 38.9632 45.7822 38.9632 45.7822Z" fill="white"/>
<path d="M110.607 18.0057C115.012 18.0057 118.558 19.3051 121.245 21.904C123.976 24.5028 125.342 28.3578 125.342 33.4689V53.4802H115.034V35.0283C115.034 32.2561 114.417 30.1987 113.184 28.8559C111.95 27.4699 110.166 26.7768 107.832 26.7768C105.233 26.7768 103.162 27.5782 101.621 29.1808C100.079 30.7401 99.3079 33.0791 99.3079 36.1977V53.4802H89V18.5254H98.8454V22.6186C100.211 21.146 101.907 20.0198 103.933 19.2401C105.96 18.4171 108.184 18.0057 110.607 18.0057Z" fill="white"/>
<path d="M148.354 45.8785C150.204 45.8785 151.834 45.6186 153.244 45.0989C154.697 44.5358 156.041 43.6695 157.274 42.5L162.759 48.3475C159.411 52.1158 154.521 54 148.09 54C144.081 54 140.535 53.242 137.451 51.726C134.368 50.1667 131.989 48.0226 130.315 45.2938C128.641 42.565 127.804 39.468 127.804 36.0028C127.804 32.581 128.619 29.5057 130.249 26.7768C131.923 24.0047 134.192 21.8606 137.055 20.3446C139.962 18.7853 143.222 18.0057 146.834 18.0057C150.226 18.0057 153.31 18.7203 156.085 20.1497C158.86 21.5358 161.063 23.5716 162.693 26.2571C164.366 28.8992 165.203 32.0395 165.203 35.678L138.905 40.6808C139.654 42.4134 140.821 43.7128 142.407 44.5791C144.037 45.4454 146.019 45.8785 148.354 45.8785ZM146.834 25.6723C144.235 25.6723 142.121 26.4953 140.491 28.1412C138.861 29.7872 138.002 32.0612 137.914 34.9633L155.226 31.6497C154.741 29.8305 153.75 28.3795 152.253 27.2966C150.755 26.2137 148.949 25.6723 146.834 25.6723Z" fill="white"/>
<path d="M203.32 18.5254V53.4802H193.541V49.322C192.175 50.838 190.545 52.0075 188.651 52.8305C186.757 53.6102 184.709 54 182.506 54C177.837 54 174.136 52.6789 171.405 50.0367C168.674 47.3945 167.309 43.4746 167.309 38.2768V18.5254H177.616V36.7825C177.616 42.4134 180.017 45.2288 184.819 45.2288C187.286 45.2288 189.268 44.4492 190.766 42.8898C192.263 41.2872 193.012 38.9266 193.012 35.8079V18.5254H203.32Z" fill="white"/>
<path d="M229.653 51.791C228.64 52.5273 227.384 53.0904 225.887 53.4802C224.433 53.8267 222.913 54 221.327 54C217.055 54 213.773 52.9388 211.482 50.8164C209.191 48.694 208.046 45.5753 208.046 41.4605V10.7938H218.354V19.3051H227.142V27.1017H218.354V41.3305C218.354 42.8032 218.728 43.951 219.477 44.774C220.226 45.5537 221.305 45.9435 222.715 45.9435C224.301 45.9435 225.711 45.5104 226.944 44.6441L229.653 51.791Z" fill="white"/>
<path d="M240.695 23.1384C241.928 21.4492 243.58 20.1714 245.651 19.3051C247.765 18.4388 250.188 18.0057 252.919 18.0057V27.3616C251.774 27.275 251.003 27.2316 250.606 27.2316C247.655 27.2316 245.342 28.0546 243.668 29.7006C241.995 31.3032 241.158 33.7288 241.158 36.9774V53.4802H230.85V18.5254H240.695V23.1384Z" fill="white"/>
<path d="M271.016 54C267.271 54 263.902 53.242 260.906 51.726C257.955 50.1667 255.642 48.0226 253.968 45.2938C252.294 42.565 251.457 39.468 251.457 36.0028C251.457 32.5377 252.294 29.4407 253.968 26.7119C255.642 23.9831 257.955 21.8606 260.906 20.3446C263.902 18.7853 267.271 18.0057 271.016 18.0057C274.76 18.0057 278.108 18.7853 281.059 20.3446C284.011 21.8606 286.323 23.9831 287.997 26.7119C289.671 29.4407 290.508 32.5377 290.508 36.0028C290.508 39.468 289.671 42.565 287.997 45.2938C286.323 48.0226 284.011 50.1667 281.059 51.726C278.108 53.242 274.76 54 271.016 54ZM271.016 45.6836C273.659 45.6836 275.817 44.8173 277.491 43.0847C279.209 41.3089 280.068 38.9482 280.068 36.0028C280.068 33.0574 279.209 30.7185 277.491 28.9859C275.817 27.21 273.659 26.322 271.016 26.322C268.373 26.322 266.192 27.21 264.474 28.9859C262.756 30.7185 261.897 33.0574 261.897 36.0028C261.897 38.9482 262.756 41.3089 264.474 43.0847C266.192 44.8173 268.373 45.6836 271.016 45.6836Z" fill="white"/>
<path d="M314.38 18.0057C318.785 18.0057 322.331 19.3051 325.018 21.904C327.749 24.5028 329.115 28.3578 329.115 33.4689V53.4802H318.807V35.0283C318.807 32.2561 318.19 30.1987 316.957 28.8559C315.723 27.4699 313.939 26.7768 311.605 26.7768C309.006 26.7768 306.935 27.5782 305.393 29.1808C303.852 30.7401 303.081 33.0791 303.081 36.1977V53.4802H292.773V18.5254H302.618V22.6186C303.984 21.146 305.68 20.0198 307.706 19.2401C309.732 18.4171 311.957 18.0057 314.38 18.0057Z" fill="white"/>
<path d="M332.512 8H344.802L342.753 37.6921H334.56L332.512 8ZM338.657 54C336.851 54 335.331 53.4369 334.097 52.3107C332.908 51.1412 332.313 49.7335 332.313 48.0876C332.313 46.4416 332.908 45.0772 334.097 43.9944C335.287 42.8682 336.807 42.3051 338.657 42.3051C340.507 42.3051 342.027 42.8682 343.216 43.9944C344.405 45.0772 345 46.4416 345 48.0876C345 49.7335 344.383 51.1412 343.15 52.3107C341.96 53.4369 340.463 54 338.657 54Z" fill="white"/>
</svg>
